<?xml version="1.0" encoding="UTF-8" standalone="no"?>
<svg
   viewBox="0 0 256 256"
   version="1.1"
   id="svg82"
   sodipodi:docname="icon.svg"
   inkscape:version="1.2.2 (b0a8486541, 2022-12-01)"
   xmlns:inkscape="http://www.inkscape.org/namespaces/inkscape"
   xmlns:sodipodi="http://sodipodi.sourceforge.net/DTD/sodipodi-0.dtd"
   xmlns="http://www.w3.org/2000/svg"
   xmlns:svg="http://www.w3.org/2000/svg">
  <defs
     id="defs86" />
  <sodipodi:namedview
     id="namedview84"
     pagecolor="#ffffff"
     bordercolor="#000000"
     borderopacity="0.25"
     inkscape:showpageshadow="2"
     inkscape:pageopacity="0.0"
     inkscape:pagecheckerboard="0"
     inkscape:deskcolor="#d1d1d1"
     showgrid="false"
     inkscape:zoom="3.2890625"
     inkscape:cx="128"
     inkscape:cy="128.7601"
     inkscape:window-width="1854"
     inkscape:window-height="1011"
     inkscape:window-x="66"
     inkscape:window-y="32"
     inkscape:window-maximized="1"
     inkscape:current-layer="svg82" />
  <!-- Discord blurple rounded-square background -->
  <rect
     width="256"
     height="256"
     rx="48"
     fill="#5865F2"
     id="rect68" />
  <!-- ═══════════════════════════════════════════════════════════════
       Home Assistant house silhouette (white).
       Shape: pointed roof peak → left eave → left wall → rounded
       bottom-left corner → bottom edge → rounded bottom-right corner
       → right wall → right eave → back to peak.
       ═══════════════════════════════════════════════════════════════ -->
  <path
     d="M 128.7832,22.032271 25.250868,117.7056 v 112.68192 q 0,8.5043 10.100717,8.5043 H 222.21483 q 10.10072,0 10.10072,-8.5043 V 117.7056 Z"
     fill="#ffffff"
     id="path70"
     style="stroke-width:1.15852" />
  <g
     id="g304"
     transform="matrix(0.63280924,0,0,0.58942201,48.006809,105.50758)">
    <path
       d="M 216.85634,16.596603 C 200.285,8.8432867 182.56614,3.2084988 164.04156,0 c -2.27504,4.1131811 -4.93294,9.6454991 -6.76546,14.046438 -19.69211,-2.961448 -39.20313,-2.961448 -58.533084,0 C 96.910842,9.6454991 94.192584,4.1131811 91.897189,0 73.352607,3.2084988 55.613395,8.8639912 39.042058,16.637661 5.6175229,67.146514 -3.4433191,116.40081 1.0871107,164.95572 23.25602,181.51091 44.740363,191.5677 65.862133,198.14858 c 5.215082,-7.17745 9.86623,-14.80725 13.873081,-22.84832 -7.631195,-2.89969 -14.940242,-6.47806 -21.846427,-10.6323 1.832174,-1.35737 3.624343,-2.77651 5.355803,-4.2367 42.12282,19.70193 87.89034,19.70193 129.50993,0 1.75182,1.46019 3.54363,2.87933 5.35581,4.2367 -6.92654,4.1746 -14.25559,7.75297 -21.88679,10.653 4.00685,8.02037 8.638,15.67087 13.87308,22.84797 21.14213,-6.58088 42.6464,-16.63731 64.81533,-33.21321 5.3158,-56.28752 -9.08086,-105.089477 -38.05561,-148.359117 z M 85.473875,135.09489 c -12.644847,0 -23.014653,-11.80473 -23.014653,-26.17999 0,-14.375253 10.148373,-26.200341 23.014653,-26.200341 12.866631,0 23.236085,11.804384 23.014655,26.200341 0.02,14.37526 -10.148024,26.17999 -23.014655,26.17999 z m 85.051365,0 c -12.64485,0 -23.01466,-11.80473 -23.01466,-26.17999 0,-14.375253 10.14803,-26.200341 23.01466,-26.200341 12.86628,0 23.23608,11.804384 23.01465,26.200341 0,14.37526 -10.14837,26.17999 -23.01465,26.17999 z"
       fill="#5865f2"
       fill-rule="nonzero"
       id="path302" />
  </g>
  <!-- ═══════════════════════════════════════════════════════════════
       Discord Clyde mascot, positioned inside the house body.
       Drawn in the same blurple as the background so the shape reads
       as a cutout through the white house.  White eyes are drawn last
       to show through the blurple Clyde.

       Layer order:
         1. Ear circles (blurple) — their tops peek above the head rect
         2. Head rect (blurple)   — merges with ears into one mass
         3. Eye ellipses (white)  — punched through the blurple
       ═══════════════════════════════════════════════════════════════ -->
  <!-- Left ear -->
  <!-- Right ear -->
  <!-- Head body -->
  <!-- Left eye -->
  <!-- Right eye -->
</svg>
